# xmcd CD database file
#
# Track frame offsets:
#	150
#	16333
#	31446
#	45537
#	56037
#	76111
#	89820
#
# Disc length: 1380 seconds
#
# Revision: 0
# Processed by: cddbd v1.5.1PL0 Copyright (c) Steve Scherf et al.
# Submitted via: CDex 1.51
#
DISCID=51056207
DTITLE=The Whoreshoes - The Whoreshoes
DYEAR=2005
DGENRE=Country
TTITLE0=Ashville
TTITLE1=She's More To Be Pittied
TTITLE2=PBR
TTITLE3=All The Reasons
TTITLE4=Those Memories of You
TTITLE5=Gay Rodeo
TTITLE6=Bottle Let Me Down
EXTD=YEAR: 2005
EXTT0=
EXTT1=
EXTT2=
EXTT3=
EXTT4=
EXTT5=
EXTT6=
PLAYORDER=
